# xmcd
# Track frame offsets:
# 150
# 14422
# 32317
# 47207
# 63572
# 79290
# 92035
# 105860
# 130585
# 146575
# 159300
# 164207
#
# Disc length: 2439 seconds
# Revision: 0
# Processed by: cddbd v1.4PL0 Copyright (c) Steve Scherf et al.
# Submitted via: VisiTrax 2.9.5.181 - For more info visit www.synapsa.com
#
DISCID=9609850c
DTITLE=André Christovam - Catharsis
DYEAR=1996
DGENRE=Blues
TTITLE0=The Leading Brand
TTITLE1=Every Night and Every Day
TTITLE2=Snowy Wood
TTITLE3=I Like it This Way
TTITLE4=Sad Hours
TTITLE5=Hell Is Fine With Me
TTITLE6=Doctor´s Cage
TTITLE7=Me and My Woman
TTITLE8=Ain´t No Sunshine
TTITLE9=Chewing Bone Blues
TTITLE10=Bobby Is Asleep
TTITLE11=No Expectations
EXTD=1996 Brasil
EXTT0=
EXTT1=
EXTT2=
EXTT3=
EXTT4=
EXTT5=
EXTT6=
EXTT7=
EXTT8=
EXTT9=
EXTT10=
EXTT11=
PLAYORDER=
